<?xml version="1.0" encoding="UTF-8"?>
<!DOCTYPE svg PUBLIC "-//W3C//DTD SVG 1.1//EN" "http://www.w3.org/Graphics/SVG/1.1/DTD/svg11.dtd">
<!-- Creator: CorelDRAW 2020 (64 Bit Versão de avaliação) -->
<svg xmlns="http://www.w3.org/2000/svg" xml:space="preserve" width="99.0934mm" height="99.0934mm" version="1.1" style="shape-rendering:geometricPrecision; text-rendering:geometricPrecision; image-rendering:optimizeQuality; fill-rule:evenodd; clip-rule:evenodd"
viewBox="0 0 9901.75 9901.75"
 xmlns:xlink="http://www.w3.org/1999/xlink"
 xmlns:xodm="http://www.corel.com/coreldraw/odm/2003">
 <defs>
  <style type="text/css">
   <![CDATA[
    .fil5 {fill:#1D5B79}
    .fil1 {fill:#468B97}
    .fil2 {fill:#EF6262}
    .fil0 {fill:#F3AA60}
    .fil4 {fill:white}
    .fil3 {fill:#1D5B79;fill-rule:nonzero}
   ]]>
  </style>
 </defs>
 <g id="Camada_x0020_1">
  <metadata id="CorelCorpID_0Corel-Layer"/>
  <g id="_1615641643872">
   <g>
    <path class="fil0" d="M4339.64 42.27l0 9817.21c-864.37,-106.54 -1659.6,-436.11 -2326.56,-929.28l0 -7958.66c666.96,-493.17 1462.19,-822.74 2326.56,-929.28z"/>
    <path class="fil1" d="M6306.97 192.9l0 9515.94c-430.94,122.6 -885.85,188.24 -1356.1,188.24 -98.91,0 -197.06,-3.25 -294.54,-8.97l0 -9874.47c97.49,-5.73 195.63,-8.97 294.54,-8.97 470.25,0 925.16,65.64 1356.1,188.24z"/>
    <path class="fil2" d="M7448.99 681.33l0 8539.09c-260.81,152.93 -536.86,282.64 -825.32,386.35l0 -9311.8c288.46,103.71 564.51,233.42 825.32,386.35z"/>
   </g>
   <g>
    <path class="fil0" d="M4339.64 37.44l0 136.38c-869.02,110.09 -1665.79,451.8 -2326.56,961.26l0 -169.52c667.16,-492.59 1462.38,-821.71 2326.56,-928.12zm0 9690.49l0 136.38c-864.18,-106.41 -1659.4,-435.53 -2326.56,-928.12l0 -169.52c660.76,509.46 1457.53,851.18 2326.56,961.26z"/>
    <path class="fil1" d="M6306.97 188.04l0 141.01c-430.15,-126 -885.21,-193.67 -1356.1,-193.67 -98.91,0 -197.11,3.05 -294.54,8.93l0 -135.6c97.47,-5.73 195.65,-8.71 294.54,-8.71 470.23,0 925.13,65.56 1356.1,188.04zm0 9384.66l0 141.01c-430.97,122.48 -885.87,188.04 -1356.1,188.04 -98.89,0 -197.08,-2.99 -294.54,-8.71l0 -135.6c97.44,5.89 195.63,8.93 294.54,8.93 470.89,0 925.95,-67.67 1356.1,-193.67z"/>
    <path class="fil2" d="M7448.99 675.65l0 157.55c-259.96,-158.05 -536.11,-292.11 -825.32,-399.25l0 -144.11c288.44,103.54 564.49,233.07 825.32,385.81zm0 8392.89l0 157.55c-260.83,152.74 -536.88,282.27 -825.32,385.81l0 -144.11c289.21,-107.15 565.36,-241.21 825.32,-399.25z"/>
   </g>
   <g>
    <path class="fil0" d="M4339.64 37.44l0 136.38c-869.02,110.09 -1665.79,451.8 -2326.56,961.26l0 -169.52c667.16,-492.59 1462.38,-821.71 2326.56,-928.12zm0 9690.49l0 136.38c-864.18,-106.41 -1659.4,-435.53 -2326.56,-928.12l0 -169.52c660.76,509.46 1457.53,851.18 2326.56,961.26z"/>
    <path class="fil1" d="M6306.97 188.04l0 141.01c-430.15,-126 -885.21,-193.67 -1356.1,-193.67 -98.91,0 -197.11,3.05 -294.54,8.93l0 -135.6c97.47,-5.73 195.65,-8.71 294.54,-8.71 470.23,0 925.13,65.56 1356.1,188.04zm0 9384.66l0 141.01c-430.97,122.48 -885.87,188.04 -1356.1,188.04 -98.89,0 -197.08,-2.99 -294.54,-8.71l0 -135.6c97.44,5.89 195.63,8.93 294.54,8.93 470.89,0 925.95,-67.67 1356.1,-193.67z"/>
    <path class="fil2" d="M7448.99 675.65l0 157.55c-259.96,-158.05 -536.11,-292.11 -825.32,-399.25l0 -144.11c288.44,103.54 564.49,233.07 825.32,385.81zm0 8392.89l0 157.55c-260.83,152.74 -536.88,282.27 -825.32,385.81l0 -144.11c289.21,-107.15 565.36,-241.21 825.32,-399.25z"/>
   </g>
   <path class="fil3" d="M4950.87 0c1367.13,0 2604.86,554.16 3500.79,1450.09 895.92,895.92 1450.09,2133.65 1450.09,3500.79 0,1367.13 -554.16,2604.86 -1450.09,3500.79 -895.92,895.92 -2133.65,1450.09 -3500.79,1450.09 -1367.13,0 -2604.86,-554.16 -3500.79,-1450.09 -895.92,-895.92 -1450.09,-2133.65 -1450.09,-3500.79 0,-1367.13 554.16,-2604.86 1450.09,-3500.79 895.92,-895.92 2133.65,-1450.09 3500.79,-1450.09zm3405.08 1545.79c-871.41,-871.41 -2075.31,-1410.42 -3405.08,-1410.42 -1329.77,0 -2533.67,539.01 -3405.08,1410.42 -871.41,871.41 -1410.42,2075.31 -1410.42,3405.08 0,1329.77 539.01,2533.67 1410.42,3405.08 871.41,871.41 2075.31,1410.42 3405.08,1410.42 1329.77,0 2533.67,-539.01 3405.08,-1410.42 871.41,-871.41 1410.42,-2075.31 1410.42,-3405.08 0,-1329.77 -539.01,-2533.67 -1410.42,-3405.08z"/>
   <path class="fil4" d="M665.08 7100.47l1276.73 -3375.88c190.14,-502.78 742.93,-923.32 1287.02,-923.32l3467.3 20.53 -15.67 0 926.4 0 1632.74 4262.89 -1409.35 0 -280.17 -740.41 -1025.2 0 -286.81 740.41c-1852.16,0 -3709.23,15.78 -5573,15.78z"/>
   <g>
    <path class="fil5" d="M6694.91 3167.46l688.71 0 1382.48 3592.11 -711.24 0 -280.17 -740.42 -1472.53 0 -286.82 740.42 -711.27 0 1390.84 -3592.11zm345.2 954.72l-486.96 1236.57 971.38 0 -484.43 -1236.57z"/>
    <polygon class="fil5" points="4878.01,3126.4 6224.12,3126.4 4832.09,6775.34 3485.98,6775.34 "/>
    <path class="fil5" d="M4525.2 3126.4l-1296.36 0c-392.23,0 -834.59,320.97 -982.93,713.2l-1110.27 2935.74 2009.55 0 1380 -3648.94z"/>
   </g>
  </g>
 </g>
</svg>
